<svg xmlns="http://www.w3.org/2000/svg" viewBox="0 0 64 64" fill="none">
  <defs>
  <linearGradient
    id="aqua-a"
    x1="59.932"
    x2="1.336"
    y1="59.676"
    y2="1.079"
    gradientUnits="userSpaceOnUse"
  >
    <stop offset=".25" stop-color="#7256FF" />
    <stop offset=".73" stop-color="#007DFE" />
  </linearGradient>
  <linearGradient
    id="aqua-b"
    x1="7.671"
    x2="61.125"
    y1="64.392"
    y2="39.609"
    gradientUnits="userSpaceOnUse"
  >
    <stop offset=".3" stop-color="#00D886" />
    <stop offset=".54" stop-color="#7256FF" />
  </linearGradient>
  </defs>
  <path
  fill="url(#aqua-a)"
  d="M0 4.125v34.128c0 1.658.993 3.154 2.52 3.8L39.943 57.85c.518.219 1.075.33 1.638.324l18.329-.15A4.125 4.125 0 0 0 64 53.9V36.234c0-.806-.236-1.593-.678-2.267L42.213 1.86A4.13 4.13 0 0 0 38.766 0H4.125A4.125 4.125 0 0 0 0 4.125"
  />
  <path
  fill="url(#aqua-b)"
  d="M6 49.015v10.862a4.125 4.125 0 0 0 4.125 4.125h12.566q.3 0 .598-.044l37.185-5.448A4.125 4.125 0 0 0 64 54.429V39.03a4.125 4.125 0 0 0-4.127-4.125l-18.504.005c-.426 0-.849.066-1.254.195L8.871 45.085A4.13 4.13 0 0 0 6 49.015z"
  />
  <path
  fill="#00D886"
  d="M6 47.55v12.259a4.125 4.125 0 0 0 4.19 4.124L21 64c1.181-.019 2.531-.786 3.3-1.683l32.707-38.158c.64-.748.993-1.7.993-2.685V10.125A4.125 4.125 0 0 0 53.875 6H42.872c-1.19 0-2.321.514-3.105 1.409L7.021 44.834A4.12 4.12 0 0 0 6 47.55"
  />
  <path fill="#000" d="M52 12H12v40h40z" />
  <path
  fill="#fff"
  d="M33 44H17v3h16zM20.746 31.243a7.3 7.3 0 0 1-2.755-2.787q-1.002-1.774-1.003-3.961c0-2.187.334-2.778 1.003-3.96a7.3 7.3 0 0 1 2.755-2.787q1.752-1.013 3.917-1.014c1.443 0 2.739.338 3.907 1.013a7.3 7.3 0 0 1 2.75 2.787q.996 1.774.996 3.961c0 2.187-.332 2.778-.997 3.96a7.3 7.3 0 0 1-2.749 2.788q-1.752 1.013-3.907 1.013c-1.436 0-2.75-.338-3.917-1.013m6.308-2.23q1.06-.67 1.661-1.854.6-1.185.6-2.664t-.6-2.664a4.6 4.6 0 0 0-1.661-1.854q-1.061-.67-2.39-.67t-2.396.67a4.6 4.6 0 0 0-1.672 1.854q-.605 1.185-.605 2.664t.605 2.664 1.672 1.854q1.067.67 2.396.67 1.33 0 2.39-.67m-2.16 6.034a2.67 2.67 0 0 1-1.126-1.077q-.391-.696-.391-1.64l-.01-1.94h2.743v1.811q0 .332.129.573.128.242.37.365.24.123.574.123h1.833v2.165h-2.412q-.975 0-1.71-.38M38.233 16.992h3.173l5.563 15.006h-2.947l-1.212-3.483h-5.842l-1.136 3.483H32.82zm3.805 9.261-2.025-5.723-.225-.954-.215.954-1.908 5.723z"
  />
  </svg>
