<svg xmlns="http://www.w3.org/2000/svg" viewBox="0 0 100 100"><defs><linearGradient id="vscodium-gradient" x1="0" x2="100" y1="0" y2="100" gradientUnits="userSpaceOnUse"><stop offset="0" stop-color="#62A0EA"/><stop offset="1" stop-color="#1A5FB4"/></linearGradient></defs><path fill="url(#vscodium-gradient)" d="M48.26 2.274C45.406 4.105 44.583 7.898 46.422 10.742C56.531 26.397 58.917 38.205 57.882 48.553C53.698 68.369 44.603 72.389 36.655 72.389C28.895 72.389 30.973 59.618 36.806 55.88C40.288 53.706 44.748 52.293 48.171 52.293C51.563 52.293 54.313 49.552 54.313 46.17C54.313 42.787 51.563 40.046 48.171 40.046C44.173 40.046 40.251 40.886 36.59 42.316C37.338 38.787 37.614 34.973 36.647 30.919C35.179 24.763 30.953 18.883 23.615 13.183C22.33 12.183 20.7 11.734 19.083 11.934C17.466 12.134 15.995 12.966 14.994 14.248C12.912 16.918 13.394 20.766 16.072 22.843C22.05 27.486 24.024 30.923 24.699 33.752C25.374 36.581 24.831 39.616 23.475 43.786C21.742 49.406 19.73 54.423 18.848 59.234C18.414 61.602 18.377 64.179 18.265 66.238C13.96 62.042 12.275 56.502 12.275 48.407C12.274 45.025 9.524 42.283 6.133 42.284C2.744 42.287-0.002 45.027-0.003 48.407C-0.003 59.463 3.23 69.983 11.895 77.001C19.739 84.474 39.686 81.712 39.686 93.709C39.686 97.095 44.642 98.743 48.033 98.743C51.511 98.743 55.888 96.418 55.888 93.709C55.888 80.097 70.233 71.824 93.848 71.86C97.24 71.865 99.992 69.126 99.997 65.744C100.003 62.361 97.259 59.614 93.867 59.608C92.252 59.606 90.678 59.661 89.126 59.753C91.766 53.544 92.937 46.708 92.695 39.324C92.583 35.943 89.745 33.293 86.356 33.403C82.963 33.513 80.305 36.346 80.416 39.729C80.736 49.397 80.374 58.03 73.171 62.581C71.123 63.874 68.742 64.996 66.484 64.996C68.237 60.228 69.561 55.195 70.103 49.77C70.449 46.308 70.486 42.195 70.091 39C69.478 34.05 68.738 28.436 70.617 24.207C72.305 20.565 76.087 19.04 81.64 19.04C85.029 19.037 87.775 16.296 87.776 12.917C87.778 9.534 85.031 6.79 81.64 6.787C73.388 6.787 67.133 11.13 63.587 16.377C61.733 12.417 59.475 8.336 56.747 4.112C55.866 2.747 54.478 1.788 52.887 1.443C52.099 1.272 51.285 1.257 50.491 1.399C49.697 1.542 48.939 1.839 48.26 2.274z"/></svg>
